<svg xmlns="http://www.w3.org/2000/svg" viewBox="0 0 132.292 34.396"><defs><linearGradient id="b" x1="0" x2="1" y1="0" y2="0" gradientTransform="scale(19.38826 -19.38826) rotate(-67.657 -27.148 -21.748)" gradientUnits="userSpaceOnUse" spreadMethod="pad"><stop offset="0" stop-color="#fff"/><stop offset=".574" stop-color="#fff" stop-opacity="0"/><stop offset="1" stop-color="#fff" stop-opacity="0"/></linearGradient><linearGradient id="d" x1="0" x2="1" y1="0" y2="0" gradientTransform="scale(28.19952 -28.19952) rotate(69.268 21.502 -12.287)" gradientUnits="userSpaceOnUse" spreadMethod="pad"><stop offset="0" stop-color="#fff"/><stop offset=".574" stop-color="#fff" stop-opacity="0"/><stop offset="1" stop-color="#fff" stop-opacity="0"/></linearGradient><linearGradient id="f" x1="0" x2="1" y1="0" y2="0" gradientTransform="scale(-58.1505 58.1505) rotate(-59.912 10.822 7.785)" gradientUnits="userSpaceOnUse" spreadMethod="pad"><stop offset="0" stop-color="#fff" stop-opacity=".8"/><stop offset=".16" stop-color="#fff" stop-opacity=".8"/><stop offset=".843" stop-color="#fff"/><stop offset="1" stop-color="#fff"/></linearGradient><linearGradient id="h" x1="0" x2="1" y1="0" y2="0" gradientTransform="matrix(0 58.21427 58.21427 0 64.575 721.92)" gradientUnits="userSpaceOnUse" spreadMethod="pad"><stop offset="0" stop-color="#fff"/><stop offset=".019" stop-color="#fff"/><stop offset="1" stop-color="#fff" stop-opacity=".8"/></linearGradient><linearGradient id="j" x1="0" x2="1" y1="0" y2="0" gradientTransform="scale(-44.86032 44.86032) rotate(70.218 -12.752 6.963)" gradientUnits="userSpaceOnUse" spreadMethod="pad"><stop offset="0" stop-color="#fff"/><stop offset=".019" stop-color="#fff"/><stop offset="1" stop-color="#fff" stop-opacity=".8"/></linearGradient><linearGradient id="l" x1="0" x2="1" y1="0" y2="0" gradientTransform="scale(-68.17165 68.17165) rotate(70.218 -8.122 4.408)" gradientUnits="userSpaceOnUse" spreadMethod="pad"><stop offset="0" stop-color="#fff"/><stop offset=".019" stop-color="#fff"/><stop offset="1" stop-color="#fff" stop-opacity="0"/></linearGradient><linearGradient id="n" x1="0" x2="1" y1="0" y2="0" gradientTransform="matrix(0 -28.636 -28.636 0 69.378 781.493)" gradientUnits="userSpaceOnUse" spreadMethod="pad"><stop offset="0" stop-color="#fff" stop-opacity=".2"/><stop offset="1" stop-color="#fff" stop-opacity=".8"/></linearGradient><linearGradient id="p" x1="0" x2="1" y1="0" y2="0" gradientTransform="matrix(10.6555 0 0 -10.6555 58.59 787.817)" gradientUnits="userSpaceOnUse" spreadMethod="pad"><stop offset="0" stop-color="#fff" stop-opacity=".8"/><stop offset=".091" stop-color="#fff" stop-opacity=".8"/><stop offset="1" stop-color="#fff" stop-opacity="0"/></linearGradient><linearGradient id="r" x1="0" x2="1" y1="0" y2="0" gradientTransform="scale(-16.59185 16.59185) rotate(28.482 -95.404 13.352)" gradientUnits="userSpaceOnUse" spreadMethod="pad"><stop offset="0" stop-color="#fff" stop-opacity=".8"/><stop offset=".048" stop-color="#fff" stop-opacity=".8"/><stop offset=".527" stop-color="#fff" stop-opacity=".602"/><stop offset=".538" stop-color="#fff" stop-opacity=".602"/><stop offset="1" stop-color="#fff" stop-opacity=".4"/></linearGradient><linearGradient id="t" x1="0" x2="1" y1="0" y2="0" gradientTransform="matrix(17.77977 0 0 -17.77977 61.637 789.16)" gradientUnits="userSpaceOnUse" spreadMethod="pad"><stop offset="0" stop-color="#fff"/><stop offset=".091" stop-color="#fff"/><stop offset="1" stop-color="#fff" stop-opacity="0"/></linearGradient><linearGradient id="v" x1="0" x2="1" y1="0" y2="0" gradientTransform="scale(-33.04783 33.04783) rotate(-86.698 11.73 12.826)" gradientUnits="userSpaceOnUse" spreadMethod="pad"><stop offset="0" stop-color="#fff" stop-opacity=".8"/><stop offset=".091" stop-color="#fff" stop-opacity=".8"/><stop offset="1" stop-color="#fff" stop-opacity="0"/></linearGradient><linearGradient id="x" x1="0" x2="1" y1="0" y2="0" gradientTransform="matrix(19.46636 0 0 -19.46636 62.846 738.25)" gradientUnits="userSpaceOnUse" spreadMethod="pad"><stop offset="0" stop-color="#fff"/><stop offset=".091" stop-color="#fff"/><stop offset="1" stop-color="#fff" stop-opacity="0"/></linearGradient><linearGradient id="z" x1="0" x2="1" y1="0" y2="0" gradientTransform="matrix(-.65218 12.3262 12.3262 .65218 62.37 766.096)" gradientUnits="userSpaceOnUse" spreadMethod="pad"><stop offset="0" stop-color="#fff"/><stop offset=".091" stop-color="#fff"/><stop offset="1" stop-color="#fff" stop-opacity="0"/></linearGradient><linearGradient id="B" x1="0" x2="1" y1="0" y2="0" gradientTransform="scale(66.26896) rotate(-90 6.44 5.39)" gradientUnits="userSpaceOnUse" spreadMethod="pad"><stop offset="0" stop-color="#fff" stop-opacity="0"/><stop offset=".023" stop-color="#fff" stop-opacity="0"/><stop offset=".512" stop-color="#fff"/><stop offset=".983" stop-color="#fff" stop-opacity="0"/><stop offset="1" stop-color="#fff" stop-opacity="0"/></linearGradient><linearGradient id="D" x1="0" x2="1" y1="0" y2="0" gradientTransform="matrix(0 -66.26886 -66.26886 0 69.694 787.855)" gradientUnits="userSpaceOnUse" spreadMethod="pad"><stop offset="0" stop-color="#fff" stop-opacity="0"/><stop offset=".023" stop-color="#fff" stop-opacity="0"/><stop offset=".512" stop-color="#fff"/><stop offset=".983" stop-color="#fff" stop-opacity="0"/><stop offset="1" stop-color="#fff" stop-opacity="0"/></linearGradient><clipPath id="a" clipPathUnits="userSpaceOnUse"><path d="M-32768 32767h65535v-65535h-65535z"/></clipPath><clipPath id="c" clipPathUnits="userSpaceOnUse"><path d="M-32768 32767h65535v-65535h-65535z"/></clipPath><clipPath id="e" clipPathUnits="userSpaceOnUse"><path d="M-32768 32767h65535v-65535h-65535z"/></clipPath><clipPath id="g" clipPathUnits="userSpaceOnUse"><path d="M-32768 32767h65535v-65535h-65535z"/></clipPath><clipPath id="i" clipPathUnits="userSpaceOnUse"><path d="M-32768 32767h65535v-65535h-65535z"/></clipPath><clipPath id="k" clipPathUnits="userSpaceOnUse"><path d="M-32768 32767h65535v-65535h-65535z"/></clipPath><clipPath id="m" clipPathUnits="userSpaceOnUse"><path d="M-32768 32767h65535v-65535h-65535z"/></clipPath><clipPath id="o" clipPathUnits="userSpaceOnUse"><path d="M-32768 32767h65535v-65535h-65535z"/></clipPath><clipPath id="q" clipPathUnits="userSpaceOnUse"><path d="M-32768 32767h65535v-65535h-65535z"/></clipPath><clipPath id="s" clipPathUnits="userSpaceOnUse"><path d="M-32768 32767h65535v-65535h-65535z"/></clipPath><clipPath id="u" clipPathUnits="userSpaceOnUse"><path d="M-32768 32767h65535v-65535h-65535z"/></clipPath><clipPath id="w" clipPathUnits="userSpaceOnUse"><path d="M-32768 32767h65535v-65535h-65535z"/></clipPath><clipPath id="y" clipPathUnits="userSpaceOnUse"><path d="M-32768 32767h65535v-65535h-65535z"/></clipPath><clipPath id="A" clipPathUnits="userSpaceOnUse"><path d="M-32768 32767h65535v-65535h-65535z"/></clipPath><clipPath id="C" clipPathUnits="userSpaceOnUse"><path d="M-32768 32767h65535v-65535h-65535z"/></clipPath></defs><path fill="#000000" d="M56.772 27.227c-.814 0-1.162-1.084-1.162-4.07 0-1.55.755-1.937 2.905-1.937.565 0 1.016.005 1.449.012-.686 2.111-1.606 5.995-3.192 5.995m-4.36-2.035c0 .79.075 1.464.212 2.035H41.25c-1.512 0-2.48-.35-2.48-1.745v-3.874h3.583c.292-.871.485-1.668.582-2.518h-4.163c.017-1.195.104-2.263.191-3.488-1.356.484-2.42 1.045-3.294 2.015v1.473h-1.84c-.155 1.047-.155 1.839-.193 2.518h2.033v4.069c0 2.848 1.726 4.069 4.089 4.069H55.22c1.894 0 3.35-1.553 4.748-5.067v5.067h3.1V19.09c-1.395-.117-2.675-.196-4.069-.196-3.836 0-6.589 1.59-6.589 6.298m16.277-1.182v-1.045c0-1.357-.098-2.52-.29-3.875h-3.004c.097 1.355.194 2.518.194 3.875v6.78h3.1c0-3.798 1.22-8.118 4.456-7.652 0-.679-.097-2.23-.29-3.199-2.362.206-3.52 2.287-4.166 5.116m-42.706 3.217c-.813 0-1.162-1.084-1.162-4.07 0-1.55.756-1.937 2.905-1.937.565 0 1.016.005 1.451.012-.688 2.111-1.606 5.995-3.194 5.995m-4.358-2.035c0 3.217 1.161 4.748 2.712 4.748 1.9 0 3.416-1.682 4.844-5.266v5.072h3.1V19.09c-1.395-.117-2.673-.196-4.07-.196-3.836 0-6.586 1.59-6.586 6.298m101.026-4.94c0-2.654-1.841-4.263-5.135-4.263-1.82 0-3.157.387-3.971.776-.465.657-.678 1.415-.97 2.613 1.24-.484 2.442-.87 4.264-.87 1.452 0 2.616.62 2.616 2.325 0 1.84-1.143 3.177-7.364 6.78 0 .389.02 1.163.194 2.133h10.268c.293-.872.485-1.646.582-2.519h-8.74c4.367-1.493 8.256-3.052 8.256-6.975M14.322 26.77l-.16-.086c-1.858-.987-4.359-2.497-4.359-5.25 0-2.52 1.63-3.702 3.585-3.702 2.171 0 3.488 1.53 3.488 4.206 0 1.842-1.015 3.468-2.554 4.832m5.945 3.17l-5.105-2.722c2.89-1.05 5.008-3.12 5.008-6.056 0-3.953-2.966-5.947-6.782-5.947-3.506 0-6.878 2.247-6.878 6.587 0 3.662 2.79 5.85 5.85 7.459l9.843 5.135c0-2.267-.27-3.566-1.936-4.456m72.543-1.164c-.87 0-3.584-1.763-3.584-6.489 0-2.327 1.357-3.779 3.584-3.779 2.228 0 3.587 1.452 3.587 3.78 0 4.725-2.714 6.488-3.587 6.488m0-12.787c-3.873 0-6.781 2.325-6.781 6.104 0 4.94 4.748 7.847 6.781 7.847 2.036 0 6.782-2.907 6.782-7.847 0-3.78-2.905-6.104-6.782-6.104m.044 5.283a8.69 8.69 0 00-1.772 1.693 8.748 8.748 0 001.772 1.693 8.872 8.872 0 001.774-1.693 8.812 8.812 0 00-1.774-1.693m17.784-1.02c0-2.654-1.842-4.263-5.137-4.263-1.82 0-3.157.387-3.972.776-.463.657-.677 1.415-.968 2.613 1.24-.484 2.443-.87 4.263-.87 1.453 0 2.617.62 2.617 2.325 0 1.84-1.143 3.177-7.363 6.78 0 .389.019 1.163.193 2.133h10.27c.29-.872.484-1.646.58-2.519h-8.74c4.367-1.493 8.257-3.052 8.257-6.975m-26.16 0c0-2.654-1.839-4.263-5.133-4.263-1.822 0-3.159.387-3.971.776-.466.657-.68 1.415-.969 2.613 1.239-.484 2.44-.87 4.263-.87 1.452 0 2.614.62 2.614 2.325 0 1.84-1.143 3.177-7.362 6.78 0 .389.02 1.163.195 2.133h10.268c.292-.872.484-1.646.58-2.519h-8.74c4.366-1.493 8.255-3.052 8.255-6.975M110.923 11.424c-.44.111-.923.215-1.447.314-.528.1-1.18.147-1.96.147a9.052 9.052 0 01-2.33-.312 6.256 6.256 0 01-2.122-1.004c-.63-.46-1.148-1.067-1.548-1.818-.403-.751-.602-1.672-.602-2.758 0-.998.166-1.874.495-2.625a5.147 5.147 0 011.374-1.878 5.813 5.813 0 012.091-1.118 8.897 8.897 0 012.625-.37 8.49 8.49 0 011.728.172c.56.114 1.12.254 1.679.42l-.245 2.486a6.495 6.495 0 00-1.473-.61 5.836 5.836 0 00-1.523-.197c-.55 0-1.042.092-1.482.28-.439.185-.814.444-1.128.772-.314.331-.555.724-.726 1.179-.17.454-.253.95-.253 1.489 0 .56.095 1.064.289 1.515.19.45.454.83.789 1.144a3.4 3.4 0 001.209.716c.472.163.987.246 1.549.246a6.53 6.53 0 001.497-.173 9.507 9.507 0 001.366-.42zM121.952 7.326c0 .791-.121 1.47-.362 2.042a3.682 3.682 0 01-1.028 1.414 4.33 4.33 0 01-1.597.832 7.232 7.232 0 01-2.05.271 7.235 7.235 0 01-2.05-.271 4.334 4.334 0 01-1.597-.832 3.682 3.682 0 01-1.027-1.414c-.242-.572-.363-1.251-.363-2.042V.198h3.062v6.618c0 .384.03.743.09 1.078.06.336.166.63.313.889.148.257.349.46.601.608.251.149.577.223.97.223.396 0 .72-.074.973-.223.253-.148.452-.35.601-.608.147-.259.252-.553.313-.89.058-.334.09-.693.09-1.077V.198h3.061zM126.546 5.499h.79c.263 0 .51-.026.74-.074.23-.05.431-.138.6-.263.17-.126.306-.292.405-.495a1.71 1.71 0 00.148-.748c0-.297-.05-.544-.148-.74a1.279 1.279 0 00-.404-.479c-.17-.12-.37-.206-.6-.254a3.427 3.427 0 00-.742-.075h-.789zM123.483.198h3.655c1.767 0 3.068.305 3.903.914.833.61 1.25 1.56 1.25 2.856 0 1.164-.4 2.072-1.201 2.724-.803.654-1.922.98-3.36.98h-1.184v4.016h-3.063zM37.061.198h3.128l1.483 8.824h.033L43.25.198h3.885l1.614 8.824h.034L50.28.198h2.98l-2.569 11.49h-3.933l-1.63-8.823h-.034l-1.513 8.823h-3.968zM56.536 5.943c0 .473.049.93.149 1.375.098.444.25.836.46 1.177.208.34.477.611.808.814.328.203.722.306 1.185.306.459 0 .857-.103 1.185-.306.33-.203.597-.474.805-.814.21-.34.363-.733.462-1.177.098-.444.148-.902.148-1.375 0-.492-.05-.962-.148-1.406a3.724 3.724 0 00-.462-1.17 2.393 2.393 0 00-.805-.799c-.328-.197-.726-.294-1.185-.294-.463 0-.857.097-1.185.294-.331.198-.6.465-.809.798-.21.336-.361.727-.459 1.171a6.39 6.39 0 00-.149 1.406m-3.162 0c0-.922.124-1.75.371-2.485A4.959 4.959 0 0154.84 1.59 4.787 4.787 0 0156.64.413C57.361.138 58.192 0 59.138 0c.942 0 1.774.138 2.493.413.719.273 1.32.667 1.802 1.177.483.51.848 1.133 1.096 1.868.247.735.369 1.563.369 2.485 0 .91-.122 1.734-.37 2.47a5.017 5.017 0 01-1.103 1.876 4.794 4.794 0 01-1.811 1.185c-.717.275-1.546.412-2.476.412-.946 0-1.773-.137-2.488-.412a4.84 4.84 0 01-1.802-1.185 4.973 4.973 0 01-1.103-1.876c-.247-.736-.371-1.56-.371-2.47M69.113 4.972h.805c.243 0 .498-.008.766-.025.27-.016.511-.068.725-.155.214-.09.393-.22.534-.396.144-.177.214-.428.214-.758 0-.263-.062-.479-.19-.65-.125-.17-.289-.3-.492-.386a2.63 2.63 0 00-.71-.181 6.73 6.73 0 00-.847-.05h-.805zM66.052.198h5.465c.503 0 .982.059 1.431.172.45.116.846.296 1.186.537.338.242.605.542.798.903.192.364.288.792.288 1.285 0 .768-.18 1.4-.545 1.894-.36.493-.915.828-1.66 1.004v.032c.24.065.435.17.584.314.148.143.277.32.386.534.11.215.21.462.304.741.095.28.212.596.357.948l1.117 3.126h-3.191l-.66-2.073c-.155-.495-.3-.901-.437-1.22a3.056 3.056 0 00-.444-.755 1.249 1.249 0 00-.545-.387 2.183 2.183 0 00-.73-.108h-.643v4.543h-3.061zM77.08.198h3.062v9.219h4.741v2.271h-7.802zM89.016 9.416H90.2c1.151 0 2.035-.29 2.649-.873.615-.58.923-1.446.923-2.6 0-1.152-.315-2.019-.94-2.6-.625-.582-1.502-.874-2.632-.874h-1.185zM85.953.197h4.18c1 0 1.917.09 2.75.264.835.176 1.55.48 2.15.915.596.433 1.064 1.018 1.398 1.753.335.733.503 1.657.503 2.765 0 1.076-.171 1.981-.512 2.716a4.612 4.612 0 01-1.415 1.786c-.603.455-1.322.784-2.157.987-.834.203-1.739.305-2.716.305h-4.181z"/><path fill="#000000" fill-rule="evenodd" d="M0 .198v11.49h3.576v-4.15H6.15l.915-2.51h-3.49V2.7H7.91L8.823.198zM9.918 11.687h3.576V.197H9.918zM15.955.198v11.49h3.578v-4.15h2.573l.915-2.51h-3.488V2.7h4.333L24.78.198zM30.349 7.936l-1.43-4.786-1.381 4.786zm4.67 3.753h-3.612l-.467-1.545H26.9l-.448 1.545h-3.52L27.116.198h3.718z"/></svg>